<!-- /assets/icons.svg -->
<svg xmlns="http://www.w3.org/2000/svg" style="display:none">

  <!-- Instagram (from your file, exact paths; color via currentColor) -->
  <symbol id="icon-instagram" viewBox="0 0 24 24">
    <path d="M7 2h10a5 5 0 0 1 5 5v10a5 5 0 0 1-5 5H7a5 5 0 0 1-5-5V7a5 5 0 0 1 5-5Z" fill="none" stroke="currentColor" stroke-width="1.5" stroke-linecap="round" stroke-linejoin="round"/>
    <path d="M15.5 12a3.5 3.5 0 1 1-7 0 3.5 3.5 0 0 1 7 0Z" fill="none" stroke="currentColor" stroke-width="1.5" stroke-linecap="round" stroke-linejoin="round"/>
    <path d="M17.5 6.5h.01" fill="none" stroke="currentColor" stroke-width="2" stroke-linecap="round" stroke-linejoin="round"/>
  </symbol>

  <!-- Facebook (from your upload, normalized to currentColor) -->
  <symbol id="icon-facebook" viewBox="0 0 24 24">
    <path fill="currentColor" d="M22 12.06C22 6.49 17.52 2 12 2S2 6.49 2 12.06C2 17.06 5.66 21.2 10.4 22v-7.03H7.9V12h2.5V9.8c0-2.47 1.47-3.84 3.72-3.84 1.08 0 2.21.19 2.21.19v2.43h-1.25c-1.23 0-1.62.77-1.62 1.56V12h2.76l-.44 2.97h-2.32V22C18.34 21.2 22 17.06 22 12.06Z"/>
  </symbol>

  <!-- Palette (from your file; mixed fill/stroke preserved) -->
  <symbol id="icon-palette" viewBox="0 0 24 24">
    <path d="M12 3C6.48 3 2 7.03 2 12s3.58 9 8.5 9c2.54 0 2.34-1.57 2.12-3.2-.09-.7-.21-1.62.28-2.18.55-.63 1.32-.59 2.13-.44.53.1 1.1.28 1.63.45 1.82.55 3.34.05 3.34-3.63C20 7.03 17.52 3 12 3Z" fill="none" stroke="currentColor" stroke-width="1.5" stroke-linecap="round" stroke-linejoin="round"/>
    <circle cx="8" cy="8.5" r="1.5" fill="currentColor"/>
    <circle cx="12" cy="6.5" r="1.5" fill="currentColor"/>
    <circle cx="16" cy="8.5" r="1.5" fill="currentColor"/>
    <circle cx="12" cy="17.5" r="1.5" fill="currentColor"/>
  </symbol>

<!-- Hamburger / menu -->
<symbol id="icon-bars" viewBox="0 0 24 24">
  <path d="M3 6h18M3 12h18M3 18h18"
        fill="none"
        stroke="currentColor"
        stroke-width="2"
        stroke-linecap="round"/>
</symbol>

  <!-- Arrow Right (from your file; stroke icon) -->
  <symbol id="icon-arrow-right" viewBox="0 0 24 24">
    <path d="M13.2 5.4L19.8 12l-6.6 6.6M4.2 12h15.6" fill="none" stroke="currentColor" stroke-width="1.8" stroke-linecap="round" stroke-linejoin="round"/>
  </symbol>

  <!-- Arrow Up (from your file; stroke icon) -->
  <symbol id="icon-arrow-up" viewBox="0 0 24 24">
    <path d="M12 5V19M5 12l7-7 7 7" fill="none" stroke="currentColor" stroke-width="1.8" stroke-linecap="round" stroke-linejoin="round"/>
  </symbol>

  <!-- Arrow Left (from your file; stroke icon) -->
  <symbol id="icon-arrow-left" viewBox="0 0 24 24">
    <path d="M10.8 18.6L4.2 12l6.6-6.6M19.8 12H4.2" fill="none" stroke="currentColor" stroke-width="1.8" stroke-linecap="round" stroke-linejoin="round"/>
  </symbol>

  <!-- Keep your existing menu chevron exactly as-is -->
  <symbol id="icon-chevron-down" viewBox="0 0 24 24">
    <path d="M6.7 9.3L12 14.6l5.3-5.3 1.4 1.4-6.7 6.7-6.7-6.7z"/>
  </symbol>
</svg>
