<!-- /assets/icons.svg -->
<svg xmlns="http://www.w3.org/2000/svg" style="display:none">

  <!-- WhatsApp (solid, currentColor) -->
  <symbol id="icon-whatsapp" viewBox="0 0 24 24">
    <path fill="currentColor" d="M17.472 14.382c-.297-.149-1.758-.867-2.03-.967-.273-.099-.471-.148-.67.15-.197.297-.767.966-.94 1.164-.173.199-.347.223-.644.075-.297-.15-1.255-.463-2.39-1.475-.883-.788-1.48-1.761-1.653-2.059-.173-.297-.018-.458.13-.606.134-.133.298-.347.446-.52.149-.174.198-.298.298-.497.099-.198.05-.371-.025-.52-.075-.149-.669-1.612-.916-2.207-.242-.579-.487-.5-.669-.51-.173-.008-.371-.01-.57-.01-.198 0-.52.074-.792.372-.272.297-1.04 1.016-1.04 2.479 0 1.462 1.065 2.875 1.213 3.074.149.198 2.096 3.2 5.077 4.487.709.306 1.262.489 1.694.625.712.227 1.36.195 1.871.118.571-.085 1.758-.719 2.006-1.413.248-.694.248-1.289.173-1.413-.074-.124-.272-.198-.57-.347m-5.421 7.403h-.004a9.87 9.87 0 01-5.031-1.378l-.361-.214-3.741.982.998-3.648-.235-.374a9.86 9.86 0 01-1.51-5.26c.001-5.45 4.436-9.884 9.888-9.884 2.64 0 5.122 1.03 6.988 2.898a9.825 9.825 0 012.893 6.994c-.003 5.45-4.437 9.884-9.885 9.884m8.413-18.297A11.815 11.815 0 0012.05 0C5.495 0 .16 5.335.157 11.892c0 2.096.547 4.142 1.588 5.945L.057 24l6.305-1.654a11.882 11.882 0 005.683 1.448h.005c6.554 0 11.89-5.335 11.893-11.893a11.821 11.821 0 00-3.48-8.413Z"/>
  </symbol>

  <!-- Facebook (solid, currentColor) -->
  <symbol id="icon-facebook" viewBox="0 0 24 24">
    <path fill="currentColor" d="M9.101 23.691v-7.98H6.627v-3.667h2.474v-1.58c0-4.085 1.848-5.978 5.858-5.978.401 0 .955.042 1.468.103a8.68 8.68 0 0 1 1.141.195v3.325a8.623 8.623 0 0 0-.653-.036 26.805 26.805 0 0 0-.733-.009c-.707 0-1.259.096-1.675.309a1.686 1.686 0 0 0-.679.622c-.258.42-.374.995-.374 1.752v1.297h3.919l-.386 2.103-.287 1.564h-3.246v8.245C19.396 23.238 24 18.179 24 12.044c0-6.627-5.373-12-12-12s-12 5.373-12 12c0 5.628 3.874 10.35 9.101 11.647Z"/>
  </symbol>

  <!-- Instagram (solid, currentColor) -->
  <symbol id="icon-instagram" viewBox="0 0 24 24">
    <path fill="currentColor" d="M7.0301.084c-1.2768.0602-2.1487.264-2.911.5634-.7888.3075-1.4575.72-2.1228 1.3877-.6652.6677-1.075 1.3368-1.3802 2.127-.2954.7638-.4956 1.6365-.552 2.914-.0564 1.2775-.0689 1.6882-.0626 4.947.0062 3.2586.0206 3.6671.0825 4.9473.061 1.2765.264 2.1482.5635 2.9107.308.7889.72 1.4573 1.388 2.1228.6679.6655 1.3365 1.0743 2.1285 1.38.7632.295 1.6361.4961 2.9134.552 1.2773.056 1.6884.069 4.9462.0627 3.2578-.0062 3.668-.0207 4.9478-.0814 1.28-.0607 2.147-.2652 2.9098-.5633.7889-.3086 1.4578-.72 2.1228-1.3881.665-.6682 1.0745-1.3378 1.3795-2.1284.2957-.7632.4966-1.636.552-2.9124.056-1.2809.0692-1.6898.063-4.948-.0063-3.2583-.021-3.6668-.0817-4.9465-.0607-1.2797-.264-2.1487-.5633-2.9117-.3084-.7889-.72-1.4568-1.3876-2.1228C21.2982 1.33 20.628.9208 19.8378.6165 19.074.321 18.2017.1197 16.9244.0645 15.6471.0093 15.236-.005 11.977.0014 8.718.0076 8.31.0215 7.0301.0839m.1402 21.6932c-1.17-.0509-1.8053-.2453-2.2287-.408-.5606-.216-.96-.4771-1.3819-.895-.422-.4178-.6811-.8186-.9-1.378-.1644-.4234-.3624-1.058-.4171-2.228-.0595-1.2645-.072-1.6442-.079-4.848-.007-3.2037.0053-3.583.0607-4.848.05-1.169.2456-1.805.408-2.2282.216-.5613.4762-.96.895-1.3816.4188-.4217.8184-.6814 1.3783-.9003.423-.1651 1.0575-.3614 2.227-.4171 1.2655-.06 1.6447-.072 4.848-.079 3.2033-.007 3.5835.005 4.8495.0608 1.169.0508 1.8053.2445 2.228.408.5608.216.96.4754 1.3816.895.4217.4194.6816.8176.9005 1.3787.1653.4217.3617 1.056.4169 2.2263.0602 1.2655.0739 1.645.0796 4.848.0058 3.203-.0055 3.5834-.061 4.848-.051 1.17-.245 1.8055-.408 2.2294-.216.5604-.4763.96-.8954 1.3814-.419.4215-.8181.6811-1.3783.9-.4224.1649-1.0577.3617-2.2262.4174-1.2656.0595-1.6448.072-4.8493.079-3.2045.007-3.5825-.006-4.848-.0608M16.953 5.5864A1.44 1.44 0 1 0 18.39 4.144a1.44 1.44 0 0 0-1.437 1.4424M5.8385 12.012c.0067 3.4032 2.7706 6.1557 6.173 6.1493 3.4026-.0065 6.157-2.7701 6.1506-6.1733-.0065-3.4032-2.771-6.1565-6.174-6.1498-3.403.0067-6.156 2.771-6.1496 6.1738M8 12.0077a4 4 0 1 1 4.008 3.9921A3.9996 3.9996 0 0 1 8 12.0077"/>
  </symbol>

  <!-- Painting Palette (filled, currentColor) -->
  <symbol id="icon-palette" viewBox="0 0 24 24">
    <path fill="none" d="M0 0h24v24H0z"/>
    <path fill="currentColor" d="M12 2c5.498 0 10 4.002 10 9c0 1.351 -.6 2.64 -1.654 3.576c-1.03 .914 -2.412 1.424 -3.846 1.424h-2.516a1 1 0 0 0 -.5 1.875a1 1 0 0 1 .194 .14a2.3 2.3 0 0 1 -1.597 3.99l-.156 -.009l.068 .004l-.273 -.004c-5.3 -.146 -9.57 -4.416 -9.716 -9.716l-.004 -.28c0 -5.523 4.477 -10 10 -10m-3.5 6.5a2 2 0 0 0 -1.995 1.85l-.005 .15a2 2 0 1 0 2 -2m8 0a2 2 0 0 0 -1.995 1.85l-.005 .15a2 2 0 1 0 2 -2m-4 -3a2 2 0 0 0 -1.995 1.85l-.005 .15a2 2 0 1 0 2 -2"/>
  </symbol>

  <!-- Hamburger / menu (stroke) -->
  <symbol id="icon-bars" viewBox="0 0 24 24">
    <path d="M3 6h18M3 12h18M3 18h18"
          fill="none"
          stroke="currentColor"
          stroke-width="2"
          stroke-linecap="round"/>
  </symbol>

  <!-- Arrow Right (stroke) -->
  <symbol id="icon-arrow-right" viewBox="0 0 24 24">
    <path d="M13.2 5.4L19.8 12l-6.6 6.6M4.2 12h15.6"
          fill="none"
          stroke="currentColor"
          stroke-width="1.8"
          stroke-linecap="round"
          stroke-linejoin="round"/>
  </symbol>

  <!-- Arrow Up (stroke) -->
  <symbol id="icon-arrow-up" viewBox="0 0 24 24">
    <path d="M12 5V19M5 12l7-7 7 7"
          fill="none"
          stroke="currentColor"
          stroke-width="1.8"
          stroke-linecap="round"
          stroke-linejoin="round"/>
  </symbol>

  <!-- Arrow Left (stroke) -->
  <symbol id="icon-arrow-left" viewBox="0 0 24 24">
    <path d="M10.8 18.6L4.2 12l6.6-6.6M19.8 12H4.2"
          fill="none"
          stroke="currentColor"
          stroke-width="1.8"
          stroke-linecap="round"
          stroke-linejoin="round"/>
  </symbol>

  <!-- Chevron Down (fill, as in your original) -->
  <symbol id="icon-chevron-down" viewBox="0 0 24 24">
    <path d="M6.7 9.3L12 14.6l5.3-5.3 1.4 1.4-6.7 6.7-6.7-6.7z"/>
  </symbol>

  <!-- Message / SMS (solid, currentColor) -->
  <symbol id="icon-message" viewBox="0 0 24 24">
    <path fill="currentColor" d="M4 4h16a2 2 0 0 1 2 2v9a2 2 0 0 1-2 2H9.8l-3.57 2.38A1 1 0 0 1 5 18.5V17H4a2 2 0 0 1-2-2V6a2 2 0 0 1 2-2Zm3 5a1 1 0 1 0 0 2h10a1 1 0 1 0 0-2H7Zm0 4a1 1 0 1 0 0 2h7a1 1 0 1 0 0-2H7Z"/>
  </symbol>

  <!-- Checklist (Step 1 – Join the client list) -->
<symbol
  id="icon-checklist"
  viewBox="0 0 24 24"
  fill="none"
  stroke="currentColor"
  stroke-width="2"
  stroke-linecap="round"
  stroke-linejoin="round"
>
  <path stroke="none" d="M0 0h24v24H0z" fill="none" />
  <path d="M9.615 20h-2.615a2 2 0 0 1 -2 -2v-12a2 2 0 0 1 2 -2h8a2 2 0 0 1 2 2v8" />
  <path d="M14 19l2 2l4 -4" />
  <path d="M9 8h4" />
  <path d="M9 12h2" />
</symbol>

<!-- Coins (currency converter) -->
<symbol id="icon-coins" viewBox="0 0 24 24" 
        fill="none" stroke="currentColor" 
        stroke-width="2" stroke-linecap="round" stroke-linejoin="round">
  <path stroke="none" d="M0 0h24v24H0z" fill="none" />
  <path d="M9 14c0 1.657 2.686 3 6 3s6 -1.343 6 -3s-2.686 -3 -6 -3s-6 1.343 -6 3z" />
  <path d="M9 14v4c0 1.656 2.686 3 6 3s6 -1.344 6 -3v-4" />
  <path d="M3 6c0 1.072 1.144 2.062 3 2.598s4.144 .536 6 0c1.856 -.536 3 -1.526 3 -2.598c0 -1.072 -1.144 -2.062 -3 -2.598s-4.144 -.536 -6 0c-1.856 .536 -3 1.526 -3 2.598z" />
  <path d="M3 6v10c0 .888 .772 1.45 2 2" />
  <path d="M3 11c0 .888 .772 1.45 2 2" />
</symbol>

<!-- Camera (Step 2 – Photos & planning) -->
<symbol
  id="icon-camera"
  viewBox="0 0 24 24"
  fill="none"
  stroke="currentColor"
  stroke-width="2"
  stroke-linecap="round"
  stroke-linejoin="round"
>
  <path stroke="none" d="M0 0h24v24H0z" fill="none" />
  <path
    d="M5 7h1a2 2 0 0 0 2 -2a1 1 0 0 1 1 -1h6a1 1 0 0 1 1 1a2 2 0 0 0 2 2h1a2 2 0 0 1 2 2v9a2 2 0 0 1 -2 2h-14a2 2 0 0 1 -2 -2v-9a2 2 0 0 1 2 -2"
  />
  <path d="M9 13a3 3 0 1 0 6 0a3 3 0 0 0 -6 0" />
</symbol>

<!-- Brush (Step 3 – Painting & updates) -->
<symbol
  id="icon-brush"
  viewBox="0 0 24 24"
  fill="none"
  stroke="currentColor"
  stroke-width="2"
  stroke-linecap="round"
  stroke-linejoin="round"
>
  <path stroke="none" d="M0 0h24v24H0z" fill="none" />
  <path d="M3 21v-4a4 4 0 1 1 4 4h-4" />
  <path d="M21 3a16 16 0 0 0 -12.8 10.2" />
  <path d="M21 3a16 16 0 0 1 -10.2 12.8" />
  <path d="M10.6 9a9 9 0 0 1 4.4 4.4" />
</symbol>

<!-- Cube send (Step 4 – Approval & delivery) -->
<symbol
  id="icon-cube-send"
  viewBox="0 0 24 24"
  fill="none"
  stroke="currentColor"
  stroke-width="2"
  stroke-linecap="round"
  stroke-linejoin="round"
>
  <path stroke="none" d="M0 0h24v24H0z" fill="none" />
  <path d="M16 12.5l-5 -3l5 -3l5 3v5.5l-5 3z" />
  <path d="M11 9.5v5.5l5 3" />
  <path d="M16 12.545l5 -3.03" />
  <path d="M7 9h-5" />
  <path d="M7 12h-3" />
  <path d="M7 15h-1" />
</symbol>

</svg>
